<svg width="129" height="60" viewBox="0 0 129 60" fill="none" xmlns="http://www.w3.org/2000/svg">
<g clip-path="url(#clip0_43478_51502)">
<path d="M37.0228 42.9571C34.912 42.7927 33.069 42.3314 31.5982 41.5995C29.3573 40.4844 27.7103 38.6082 26.9275 36.2788C26.3245 34.4847 26.2754 33.0722 26.7511 31.2108C27.54 28.1242 29.5447 25.5062 32.7377 23.3924C34.7673 22.0488 36.8303 21.1599 39.382 20.5294C42.3271 19.8016 44.5817 19.754 47.5684 20.3563C52.7166 21.3946 55.6844 24.0406 56.2184 28.0681C56.3309 28.9161 56.2585 30.6086 56.0724 31.4847C55.5715 33.8427 54.2227 36.1055 52.1191 38.1169C49.3247 40.7889 45.598 42.3933 41.1027 42.8596C40.3662 42.936 37.6003 43.0021 37.0228 42.9571ZM41.5065 37.4295C43.9174 37.1172 45.8301 36.2108 47.2984 34.6849C48.1972 33.7507 48.8097 32.7051 49.0928 31.6213C49.2718 30.9363 49.2882 29.7666 49.1274 29.1614C48.5929 27.1498 46.841 25.9052 43.9349 25.4724C42.6905 25.287 41.7032 25.3509 40.2655 25.7097C37.8637 26.3091 35.6968 27.6896 34.5588 29.3455C33.6605 30.6527 33.2892 32.163 33.5611 33.4037C33.705 34.06 34.1791 35.0519 34.5708 35.5162C35.4242 36.5275 36.6923 37.1911 38.2216 37.4265C39.0377 37.5521 40.5492 37.5535 41.5065 37.4295ZM10.5725 42.7234C5.91919 41.9048 2.6002 39.4706 1.63042 36.1653C1.40378 35.3929 1.30623 34.5821 1.30664 33.4744C1.30727 31.7661 1.55741 30.4562 2.16629 28.9727C4.07649 24.3187 9.00061 20.8928 15.0684 19.9963C15.7647 19.8934 16.6657 19.8757 22.3801 19.8528C25.9647 19.8384 28.8975 19.836 28.8974 19.8475C28.8974 19.859 28.5907 21.0522 28.216 22.4991L27.5347 25.1299L21.837 25.1654C16.2233 25.2004 16.128 25.2032 15.3823 25.3583C13.0634 25.8407 11.1366 26.7778 9.88098 28.0339C9.1797 28.7354 8.72951 29.4516 8.42066 30.3572C8.22403 30.9337 8.19568 31.1145 8.16723 31.9731C8.12155 33.352 8.31568 34.1638 8.91556 35.1024C9.45141 35.9408 10.3461 36.5992 11.4967 37.002C12.6059 37.3902 12.7017 37.3953 18.952 37.3953H24.6856L24.6423 37.6173C24.6186 37.7395 24.3435 38.9618 24.031 40.3335L23.463 42.8276L17.3808 42.8393C11.7143 42.8503 11.249 42.8424 10.5725 42.7234ZM52.8241 42.8105C52.8249 42.6661 54.8248 38.8025 55.3265 37.9761C57.5263 34.3527 59.6004 32.2029 62.08 30.976C62.9562 30.5425 63.7006 30.3308 65.6959 29.9478C68.3015 29.4476 71.5553 28.7656 72.8431 28.4498C74.7519 27.9817 75.5374 27.6789 75.8768 27.2804C76.0376 27.0916 76.0587 27.0078 76.0587 26.5574C76.0587 25.9407 75.9374 25.6239 75.6306 25.4391C75.4044 25.3028 75.3045 25.3012 67.1586 25.301L58.9154 25.3007L58.872 25.0445C58.6645 23.8209 57.9249 22.6895 56.2308 21.0043C55.6121 20.3888 55.1059 19.8737 55.1059 19.8597C55.1059 19.8457 59.7191 19.8344 65.3575 19.8346C76.5638 19.8351 76.1386 19.8212 77.7488 20.2375C79.9857 20.8158 81.6024 21.9276 82.3502 23.402C82.7529 24.1962 82.8597 24.776 82.8172 25.9397C82.7787 26.9947 82.6541 27.5849 82.2848 28.4615C81.6379 29.9969 80.1314 31.4973 78.2024 32.5271C77.0718 33.1306 75.2673 33.729 74.3074 33.8186C73.4215 33.9013 73.339 34.2143 74.1051 34.5856C74.8363 34.94 75.6563 35.5144 76.3476 36.1565C77.4847 37.2126 78.2099 38.3574 78.4381 39.4563C78.5824 40.1514 78.6482 41.3724 78.5858 42.1955L78.5352 42.8617H70.5807L70.625 42.6873C70.8441 41.8249 70.9306 40.3825 70.8031 39.7184C70.6083 38.7031 68.56 36.7023 66.9207 35.926C66.3035 35.6337 66.1024 35.6289 65.567 35.8933C64.3883 36.4753 62.6294 38.8469 61.045 41.9905L60.6059 42.8617H56.7149C54.5748 42.8617 52.824 42.8387 52.8241 42.8105ZM81.2428 42.8107C81.2415 42.7824 82.415 37.6011 83.8506 31.2967L86.4607 19.8342H96.9916C102.784 19.8342 107.522 19.8496 107.522 19.8683C107.522 19.8991 106.468 24.7107 106.381 25.0786L106.344 25.2324H99.223C95.3063 25.2324 92.1017 25.2416 92.1017 25.253C92.1017 25.2643 91.9306 26.116 91.7214 27.1456C91.5122 28.1753 91.3411 29.0423 91.3411 29.0725C91.3411 29.1026 93.9861 29.1272 97.2189 29.1272C100.452 29.1272 103.097 29.1503 103.098 29.1785C103.099 29.2067 102.858 30.3136 102.562 31.6383L102.025 34.0468L96.0741 34.0469L90.1233 34.0471L89.7641 35.7106C89.5665 36.6255 89.4048 37.4096 89.4048 37.453C89.4048 37.5122 91.163 37.5319 96.4237 37.5319C103.064 37.5319 103.442 37.5384 103.438 37.6515C103.436 37.7173 103.179 38.9088 102.867 40.2993L102.299 42.8276L91.7722 42.8449C85.9822 42.8544 81.244 42.839 81.2428 42.8107ZM104.895 42.7714C104.895 42.7082 109.745 22.0899 110.254 19.988L110.291 19.8342H113.683C116.881 19.8342 117.073 19.8411 117.038 19.9538C116.971 20.1708 113.124 37.2387 113.124 37.3179C113.124 37.375 115.039 37.3953 120.454 37.3953C124.485 37.3953 127.784 37.4115 127.784 37.4312C127.784 37.4706 126.873 41.6579 126.703 42.4005L126.597 42.8617H115.746C106.797 42.8617 104.895 42.8459 104.895 42.7714Z" fill="white"/>
</g>
<defs>
<clipPath id="clip0_43478_51502">
<rect width="127.93" height="23.4375" fill="white" transform="translate(0.417969 19.6562)"/>
</clipPath>
</defs>
</svg>
