<svg width="118" height="60" viewBox="0 0 118 60" fill="none" xmlns="http://www.w3.org/2000/svg">
<g clip-path="url(#clip0_43478_51499)">
<path d="M81.2881 17.0428V43.4571H85.1719V17.0428H81.2881ZM39.7956 16.5916C32.2295 16.5916 26.3591 22.2086 26.3591 30.25C26.3591 38.6535 32.2295 43.9086 39.7956 43.9084C47.3616 43.9083 53.2441 38.6535 53.232 30.25C53.221 22.6311 47.3616 16.5916 39.7956 16.5916ZM49.3553 30.25C49.3553 36.2031 45.0753 40.1482 39.7956 40.1482C34.5159 40.1482 30.2358 36.2031 30.2358 30.25C30.2358 24.4049 34.5159 20.3519 39.7956 20.3519C45.0753 20.3519 49.3553 24.4049 49.3553 30.25ZM0.28125 16.1875V43.4571H4.24489V25.4358L24.8422 44.3125V38.6587L0.28125 16.1875ZM56.153 30.25L70.5669 43.4572H76.3463L61.9107 30.25L76.3463 17.0428H70.5669L56.153 30.25ZM117.469 43.4571H113.196L110.072 37.6078H95.9214L92.7966 43.4571H88.5241L93.6983 33.7077H108.04L100.889 20.1587L102.997 16.1875L117.469 43.4571Z" fill="white"/>
</g>
<defs>
<clipPath id="clip0_43478_51499">
<rect width="117.188" height="28.125" fill="white" transform="translate(0.28125 16.1875)"/>
</clipPath>
</defs>
</svg>
