<svg width="91" height="60" viewBox="0 0 91 60" fill="none" xmlns="http://www.w3.org/2000/svg">
<g clip-path="url(#clip0_43478_51503)">
<path d="M58.9 28.4797C57.4284 28.4797 56.2021 29.1711 55.3437 30.2285V28.7237H54.1992V41.9815H55.3437V37.2233C56.2021 38.3213 57.4284 38.972 58.9 38.972C61.5978 38.972 63.8051 36.6133 63.8051 33.7259C63.7642 30.8385 61.5978 28.4797 58.9 28.4797ZM58.9 37.874C56.8153 37.874 55.1394 36.0439 55.1394 33.7666C55.1394 31.4892 56.8153 29.6591 58.9 29.6591C60.9846 29.6591 62.6606 31.4892 62.6606 33.7666C62.6197 36.0033 60.9438 37.874 58.9 37.874Z" fill="white"/>
<path d="M45.9858 24.6167C42.1025 24.6167 38.9551 27.9108 38.9551 31.9369C38.9551 35.963 42.1025 39.2571 45.9858 39.2571C49.869 39.2571 53.0165 35.963 53.0165 31.9369C53.0165 27.9108 49.869 24.6167 45.9858 24.6167ZM45.9858 38.1591C42.7157 38.1591 40.0587 35.353 40.0587 31.9369C40.0587 28.5208 42.7157 25.7147 45.9858 25.7147C49.2559 25.7147 51.9128 28.5208 51.9128 31.9369C51.9128 35.3937 49.2559 38.1591 45.9858 38.1591Z" fill="white"/>
<path d="M79.9925 28.5208C79.5837 28.5208 79.2158 28.6428 78.8479 28.8461C78.1122 29.2528 77.5808 29.8221 77.2538 30.5948C77.2538 30.5948 77.2538 30.6355 77.2129 30.6355C77.2129 30.0255 77.2129 29.4154 77.2129 28.8054H76.0684C76.0684 32.0995 76.0684 35.3936 76.0684 38.7284C76.4362 38.7284 76.845 38.7284 77.2129 38.7284C77.2129 38.6877 77.2129 38.6877 77.2129 38.647C77.2129 36.8577 77.2129 35.2716 77.2129 33.5229C77.2129 32.7909 77.3355 32.1809 77.5808 31.6115C77.7852 31.0828 78.1122 30.5948 78.5618 30.2288C79.0932 29.7815 79.7063 29.5781 80.4012 29.7001C80.5238 29.7001 80.6056 29.7408 80.7282 29.7815C80.81 29.4561 80.9326 29.0494 81.0144 28.6834C80.7282 28.5614 80.2786 28.5208 79.9925 28.5208Z" fill="white"/>
<path d="M69.7333 28.5208C67.0354 28.5208 64.8281 30.8795 64.8281 33.7669C64.8281 36.6543 67.0354 39.013 69.7333 39.013C71.6544 39.013 73.3304 37.793 74.1479 36.0443L73.1669 35.4749C72.5537 36.8983 71.2866 37.8743 69.7741 37.8743C67.8121 37.8743 66.2179 36.207 66.0135 34.1329H73.9435H74.6384C74.6384 34.0109 74.6384 33.8889 74.6384 33.7669C74.6384 30.6761 72.5946 28.5208 69.7333 28.5208ZM69.7333 29.6595C71.7771 29.6595 73.2077 31.0422 73.453 33.1162H66.0135C66.2997 31.1642 67.853 29.6595 69.7333 29.6595Z" fill="white"/>
<path d="M89.2328 28.7245V30.2292C88.3744 29.1312 87.1482 28.4805 85.6766 28.4805C82.9788 28.4805 80.7715 30.8392 80.7715 33.7266C80.7715 36.614 82.9788 38.9728 85.6766 38.9728C87.1482 38.9728 88.3744 38.2814 89.2328 37.224V38.7288H90.3774V28.7245H89.2328ZM85.6766 37.8747C83.5919 37.8747 81.916 36.0447 81.916 33.7673C81.916 31.4899 83.5919 29.6598 85.6766 29.6598C87.7613 29.6598 89.4372 31.4899 89.4372 33.7673C89.4372 36.004 87.7613 37.8747 85.6766 37.8747Z" fill="white"/>
<path d="M33.4354 31.083C33.4354 35.9225 31.3098 40.2739 27.958 43.2834C23.7478 45.3167 19.8237 43.8934 18.5156 42.9987C22.6441 42.104 25.7916 37.1018 25.7916 31.083C25.7916 25.0642 22.6441 20.062 18.5156 19.1673C19.8237 18.2727 23.7478 16.8493 27.958 18.8827C31.3098 21.8921 33.4354 26.2435 33.4354 31.083Z" fill="white"/>
<path d="M11.6069 21.8512C9.8083 23.966 8.6229 27.1381 8.54115 30.6762V31.4488C8.6229 34.9869 9.8083 38.159 11.6069 40.2738C13.9777 43.3238 17.4521 45.2352 21.3762 45.2352C23.7879 45.2352 26.0361 44.5032 27.9573 43.2425C25.0551 45.8452 21.2127 47.3906 17.0025 47.3906C16.7572 47.3906 16.4711 47.3906 16.2258 47.3906C7.51924 47.0246 0.570312 39.8671 0.570312 31.0828C0.570312 22.0546 7.92801 14.7344 17.0025 14.7344C17.0434 14.7344 17.0434 14.7344 17.0842 14.7344C21.2536 14.7344 25.0551 16.3204 27.9573 18.8825C26.0361 17.6218 23.7879 16.8898 21.3762 16.8898C17.4521 16.8898 13.9368 18.8418 11.6069 21.8512Z" fill="white"/>
</g>
<defs>
<clipPath id="clip0_43478_51503">
<rect width="89.8047" height="32.6562" fill="white" transform="translate(0.574219 14.7344)"/>
</clipPath>
</defs>
</svg>
