<svg width="140" height="60" viewBox="0 0 140 60" fill="none" xmlns="http://www.w3.org/2000/svg">
<g clip-path="url(#clip0_56770_66504)">
<path d="M34.3056 38.324L30.8389 37.146C30.7972 37.138 30.7538 37.146 30.7169 37.1653C30.68 37.1861 30.6527 37.2214 30.6399 37.2616C30.2579 38.4556 29.1794 39.7669 27.0898 39.7669C25.0001 39.7669 22.9265 38.1748 22.9265 35.3372C22.9265 32.4997 24.8846 30.9076 27.0577 30.9076C28.8664 30.9076 29.8615 31.9187 30.3253 33.0149C30.3414 33.0807 30.4248 33.1304 30.4906 33.1144L34.0744 31.8706C34.1402 31.8369 34.1739 31.755 34.1402 31.6876C33.2768 29.2497 30.9223 26.9932 26.9742 26.9932C22.3953 26.9932 18.8789 30.4935 18.8789 35.3372C18.8789 40.1809 22.4611 43.6813 27.0898 43.6813C31.1872 43.6813 33.6427 41.0765 34.389 38.4893C34.3968 38.4733 34.4007 38.4556 34.4004 38.4378C34.4002 38.42 34.3957 38.4024 34.3874 38.3866C34.3798 38.3706 34.3682 38.3567 34.3537 38.3465C34.3397 38.3353 34.3232 38.3276 34.3056 38.324ZM88.6985 33.6296L86.4596 33.1658C85.5801 32.9828 85.0328 32.5527 85.0328 31.7887C85.0328 30.8771 85.9123 30.2127 87.023 30.2127C88.583 30.2127 89.2458 31.0922 89.5283 31.9219C89.5443 32.0214 89.6278 32.0551 89.6936 32.0214L92.8794 30.7776C92.9452 30.7439 92.9789 30.6781 92.9628 30.6123C92.3818 28.9865 90.724 26.9964 86.9909 26.9964C83.606 26.9964 81.1184 29.3187 81.1184 32.1546C81.1184 34.3277 82.4954 36.236 85.5304 36.8828L87.604 37.3803C88.8317 37.6451 89.2956 38.1427 89.2956 38.8569C89.2956 39.669 88.6327 40.4169 87.222 40.4169C85.4309 40.4169 84.5176 39.3384 84.3684 38.178C84.3684 38.0945 84.3026 38.0448 84.1854 38.0624L80.8343 38.8087C80.7685 38.8248 80.7011 38.8922 80.7011 38.974C80.9659 40.7491 82.6415 43.6845 87.2541 43.6845C91.4012 43.6845 93.3753 41.0637 93.3753 38.4925C93.3753 36.2039 91.7993 34.2619 88.6969 33.6328L88.6985 33.6296ZM114.113 26.9948C110.049 26.9948 106.366 30.2464 106.366 35.273C106.366 40.5822 110.165 43.6829 114.477 43.6829C117.695 43.6829 119.968 42.1229 121.096 39.9996C121.13 39.9161 121.096 39.8343 121.03 39.8006L117.862 38.4235C117.796 38.4075 117.713 38.4235 117.679 38.4893C117.082 39.4026 116.053 40.0156 114.511 40.0156C112.371 40.0156 110.628 38.523 110.529 36.4655H121.677C121.743 36.4655 121.81 36.3821 121.81 36.3323C121.844 36.1172 121.876 35.6021 121.876 35.1382C121.876 30.0955 118.956 26.9932 114.113 26.9932V26.9948ZM117.679 33.5477H110.628C110.728 32.1209 111.956 30.4791 114.162 30.4791C116.584 30.4791 117.613 31.9893 117.679 33.5477ZM139.941 20.0438H135.959C135.893 20.0438 135.844 20.1096 135.844 20.177V29.0523C135.412 28.2065 134.118 27.0943 131.398 27.0943C126.968 27.0943 123.884 30.6942 123.884 35.3051C123.884 39.9161 127.052 43.5834 131.531 43.5834C133.621 43.5834 135.23 42.6221 135.927 41.3766L135.943 43.0682C135.943 43.134 135.993 43.1838 136.076 43.1838H139.941C139.959 43.1842 139.976 43.181 139.992 43.1744C140.009 43.1677 140.023 43.1578 140.036 43.1453C140.048 43.133 140.058 43.1182 140.065 43.1019C140.071 43.0856 140.075 43.0682 140.074 43.0506V20.1754C140.074 20.1096 140.008 20.0422 139.941 20.0422V20.0438ZM132.029 39.8006C129.806 39.8006 128.146 38.125 128.146 35.3051C128.146 32.4853 129.856 30.8434 132.029 30.8434C134.202 30.8434 135.943 32.4692 135.943 35.273C135.943 38.0769 134.202 39.8022 132.029 39.8022V39.8006ZM104.425 39.5695C104.143 39.6032 103.661 39.6529 103.281 39.6529C102.053 39.6529 101.406 39.2051 101.406 37.8121V31.243H104.441C104.507 31.243 104.575 31.1772 104.575 31.1098V27.6095C104.575 27.5597 104.509 27.4939 104.441 27.4939H101.406V22.899C101.407 22.8814 101.404 22.8639 101.397 22.8476C101.39 22.8313 101.38 22.8166 101.368 22.8043C101.356 22.7917 101.341 22.7818 101.325 22.7752C101.308 22.7686 101.291 22.7654 101.273 22.7658H97.3748C97.2753 22.7658 97.2255 22.8316 97.2255 22.899L97.2095 27.4939H94.5052C94.4217 27.4939 94.372 27.5597 94.372 27.6095V31.1098C94.3716 31.1274 94.3748 31.1449 94.3814 31.1612C94.388 31.1775 94.3979 31.1922 94.4105 31.2045C94.4228 31.2171 94.4375 31.227 94.4538 31.2336C94.4701 31.2402 94.4876 31.2434 94.5052 31.243H97.2095V38.5584C97.2095 41.6109 99.1001 43.4197 102.169 43.4197C103.347 43.4197 104.093 43.2207 104.491 43.0875C104.541 43.0538 104.575 43.004 104.575 42.9222V39.6882C104.575 39.6048 104.509 39.539 104.425 39.5727V39.5695ZM71.6958 27.0606C69.3574 27.0606 67.6481 28.0893 66.9356 29.2V20.1754C66.936 20.1578 66.9327 20.1403 66.9261 20.124C66.9195 20.1078 66.9096 20.093 66.897 20.0807C66.8847 20.0681 66.87 20.0582 66.8537 20.0516C66.8374 20.045 66.8199 20.0418 66.8023 20.0422H62.8702C62.8044 20.0422 62.737 20.108 62.737 20.1754V43.0506C62.7366 43.0682 62.7398 43.0856 62.7465 43.1019C62.7531 43.1182 62.763 43.133 62.7756 43.1453C62.7879 43.1578 62.8026 43.1677 62.8189 43.1744C62.8352 43.181 62.8527 43.1842 62.8702 43.1838H66.7349C66.8184 43.1838 66.8681 43.134 66.8681 43.0506V41.2755C67.6979 42.6188 69.3558 43.5818 71.5289 43.5818C76.0243 43.5818 78.9774 40.0156 78.9774 35.2714C78.9774 30.5272 76.3068 27.0606 71.6942 27.0606H71.6958ZM70.8163 39.8006C68.6432 39.8006 66.8344 38.1411 66.8344 35.3051C66.8344 32.4692 68.6432 30.8097 70.8163 30.8097C72.9894 30.8097 74.681 32.4195 74.681 35.3051C74.681 38.1908 72.9894 39.8006 70.8163 39.8006ZM58.9718 27.4923H54.9739C54.8905 27.4923 54.8407 27.5581 54.8407 27.6079V43.0522C54.8407 43.1356 54.8905 43.1854 54.9739 43.1854H58.9718C58.9894 43.1858 59.0069 43.1826 59.0232 43.176C59.0395 43.1693 59.0542 43.1594 59.0665 43.1469C59.0791 43.1346 59.089 43.1198 59.0956 43.1035C59.1023 43.0872 59.1055 43.0698 59.1051 43.0522V27.6079C59.1051 27.5581 59.0393 27.4923 58.9718 27.4923ZM56.9641 19.6618C55.5212 19.6618 54.3095 20.8398 54.3095 22.2987C54.3095 23.7576 55.5036 24.9035 56.9464 24.9035C58.5225 24.9035 59.7502 23.5425 59.5336 22.0002C59.3843 20.689 58.2897 19.6779 56.9625 19.6618H56.9641ZM45.3363 27.0606C43.8437 27.0606 42.0847 27.5742 41.0896 28.7698V20.177C41.0896 20.1112 41.0238 20.0438 40.9564 20.0438H36.9585C36.9409 20.0434 36.9235 20.0466 36.9072 20.0532C36.8909 20.0598 36.8761 20.0697 36.8638 20.0823C36.8513 20.0946 36.8414 20.1094 36.8347 20.1256C36.8281 20.1419 36.8249 20.1594 36.8253 20.177V43.0522C36.8253 43.1356 36.8751 43.1854 36.9585 43.1854H40.9564C40.974 43.1858 40.9915 43.1826 41.0078 43.176C41.0241 43.1693 41.0388 43.1594 41.0511 43.1469C41.0637 43.1346 41.0736 43.1198 41.0802 43.1035C41.0868 43.0872 41.09 43.0698 41.0896 43.0522V33.9442C41.0559 32.2188 42.0686 30.8097 44.0251 30.8097C46.0826 30.8097 46.9284 32.2702 46.9284 34.0116V43.0522C46.928 43.0698 46.9312 43.0872 46.9378 43.1035C46.9444 43.1198 46.9544 43.1346 46.9669 43.1469C46.9792 43.1594 46.994 43.1693 47.0103 43.176C47.0265 43.1826 47.044 43.1858 47.0616 43.1854H51.0258C51.1093 43.1854 51.159 43.1356 51.159 43.0522V33.2974C51.159 29.8467 49.3342 27.0606 45.3363 27.0606ZM2.75407 31.1756C2.4058 31.1756 2.14099 31.4405 2.14099 31.7887C2.14099 31.9476 2.20037 32.1017 2.3063 32.2204C2.43951 32.3697 2.81988 32.7019 3.05259 32.9009C3.1858 33.0165 3.35111 33.0342 3.43457 33.0342C3.78284 33.0342 4.04765 32.7693 4.04765 32.4211C4.04765 32.2558 3.94815 32.0391 3.81494 31.9396C3.61593 31.7903 3.26765 31.4581 3.1842 31.3763C3.06864 31.2607 2.88568 31.1772 2.75247 31.1772L2.75407 31.1756ZM4.7779 32.8014C4.46333 32.8014 4.23062 33.0342 4.23062 33.3487C4.23062 33.5814 4.36383 33.7467 4.54519 33.8463C4.66074 33.9121 4.89346 33.9955 5.05877 34.0613C5.17432 34.1111 5.19198 34.1111 5.22407 34.1111C5.6221 34.1111 5.80506 33.8286 5.80506 33.5798C5.80506 33.315 5.6221 33.116 5.47284 33.0486C5.05877 32.8833 5.14062 32.8993 5.02506 32.8496C4.95926 32.8159 4.8421 32.7998 4.7763 32.7998L4.7779 32.8014ZM6.80173 33.5477C6.48716 33.498 6.20469 33.6809 6.20469 34.0116C6.20469 34.1319 6.24482 34.2491 6.32025 34.3438C6.39568 34.4385 6.5016 34.5027 6.62037 34.5267C6.74074 34.554 6.86272 34.5717 6.98469 34.5765C7.26716 34.5765 7.48222 34.3775 7.48222 34.095C7.48222 33.8623 7.29926 33.6472 7.06815 33.5975C6.96864 33.5814 6.85309 33.5638 6.80333 33.5477H6.80173ZM4.16321 30.3459C3.83099 30.3459 3.58222 30.5946 3.58222 30.9269C3.58222 31.1259 3.68173 31.3088 3.76519 31.3907C3.86469 31.4902 4.51148 31.9877 4.64469 32.0712C4.75704 32.1338 4.88222 32.1675 5.00901 32.1707C5.30753 32.1707 5.57235 31.9219 5.57235 31.6074C5.57235 31.3923 5.45679 31.1756 5.30753 31.0761C5.09247 30.9429 4.7763 30.6942 4.57728 30.5128C4.44407 30.3972 4.31247 30.3475 4.16321 30.3475V30.3459ZM8.34407 33.7628C8.07926 33.7628 7.88025 33.9618 7.88025 34.2266C7.88025 34.4914 8.07926 34.6905 8.34407 34.6905C8.60889 34.6905 8.8079 34.4914 8.8079 34.2266C8.8079 33.9618 8.60889 33.7628 8.34407 33.7628ZM6.61877 31.755C6.18704 31.6555 5.92222 31.8706 5.92222 32.2188C5.92222 32.5013 6.08753 32.7003 6.3042 32.7661C6.66852 32.8817 6.80173 32.9154 6.90123 32.9154C7.1837 32.9154 7.43247 32.7003 7.43247 32.3842C7.43247 32.1354 7.28321 31.9524 7.01839 31.8706C6.55457 31.7374 6.65407 31.755 6.62037 31.755H6.61877ZM8.34407 32.0712C8.07926 32.0712 7.88025 32.2702 7.88025 32.535C7.88025 32.7998 8.07926 32.9988 8.34407 32.9988C8.60889 32.9988 8.8079 32.7998 8.8079 32.535C8.8079 32.2702 8.60889 32.0712 8.34407 32.0712ZM5.59 29.3332C5.29148 29.3332 5.04272 29.5819 5.04272 29.8965C5.04272 30.0618 5.14222 30.2448 5.25778 30.3443C5.49049 30.5433 6.28654 31.0071 6.78407 31.1564C6.84346 31.1756 6.90444 31.1869 6.96704 31.1901C7.03926 31.1901 7.11148 31.1772 7.17728 31.15C7.24469 31.1227 7.30407 31.0825 7.35543 31.0312C7.40679 30.9798 7.44691 30.9188 7.4742 30.853C7.50148 30.7872 7.51432 30.715 7.51432 30.6428C7.51432 30.3603 7.31531 30.1613 7.13235 30.0955C6.70062 29.9302 6.20309 29.6638 5.95432 29.4648C5.85321 29.3781 5.72321 29.33 5.59 29.3316V29.3332ZM8.34407 30.378C8.07926 30.378 7.88025 30.577 7.88025 30.8418C7.88025 31.1066 8.07926 31.3056 8.34407 31.3056C8.60889 31.3056 8.8079 31.1066 8.8079 30.8418C8.8079 30.577 8.60889 30.378 8.34407 30.378ZM8.36012 18.0039C3.58222 18.0039 0 21.6696 0 26.1827C0 27.9914 0.580988 30.0474 1.21173 30.8113C1.36099 30.9943 1.5263 31.1259 1.77506 31.1259C2.15704 31.1259 2.4379 30.8434 2.4379 30.463C2.4379 30.3475 2.38815 30.1982 2.3384 30.1148C2.18914 29.8997 2.4379 29.7505 2.55346 29.9495C2.65296 30.1148 2.88568 30.2817 3.15049 30.2817C3.49877 30.2817 3.78123 29.9832 3.78123 29.6509C3.78123 29.5226 3.74593 29.3974 3.68173 29.2866C3.51642 29.0218 3.78123 28.9223 3.88074 29.0876C4.01395 29.3027 4.24506 29.4359 4.47778 29.4359C4.64951 29.4359 4.81321 29.3685 4.93518 29.2465C5.05716 29.1245 5.12457 28.9608 5.12457 28.7891C5.12457 28.6735 5.09086 28.5403 5.04111 28.4569C4.67679 27.8101 4.50988 27.1456 4.50988 26.3993C4.50988 24.0272 6.15173 22.318 8.34247 22.318C10.1336 22.318 11.5604 23.4623 12.0258 25.1539L16.3222 23.7608C15.2774 20.3439 12.1911 18.0039 8.36012 18.0039ZM13.9341 30.5112C14.2823 30.5112 14.5472 30.2464 14.5472 29.8981C14.5472 29.7392 14.4878 29.5851 14.3819 29.4664C14.2486 29.3171 13.8683 28.9849 13.6356 28.7859C13.5023 28.6703 13.337 28.6527 13.2536 28.6527C12.9053 28.6527 12.6405 28.9175 12.6405 29.2658C12.6405 29.4311 12.74 29.6477 12.8732 29.7472C13.0722 29.8965 13.4205 30.2287 13.5039 30.3106C13.6195 30.4261 13.8025 30.5096 13.9357 30.5096L13.9341 30.5112ZM11.9102 28.8854C12.2248 28.8854 12.4575 28.6527 12.4575 28.3381C12.4575 28.1054 12.3243 27.9401 12.143 27.8406C12.0274 27.7748 11.7947 27.6913 11.6294 27.6255C11.5138 27.5758 11.4962 27.5758 11.4641 27.5758C11.066 27.5758 10.8831 27.8582 10.8831 28.107C10.8831 28.3718 11.066 28.5708 11.2153 28.6382C11.6294 28.8035 11.5475 28.7875 11.6631 28.8372C11.7289 28.8709 11.846 28.887 11.9119 28.887L11.9102 28.8854ZM9.88642 28.1391C10.201 28.1888 10.4835 28.0059 10.4835 27.6753C10.4835 27.5549 10.4433 27.4377 10.3679 27.343C10.2925 27.25 10.1865 27.1842 10.0678 27.1601C9.94741 27.1328 9.82543 27.1151 9.70346 27.1103C9.42099 27.1103 9.20593 27.3093 9.20593 27.5918C9.20593 27.8245 9.38889 28.0396 9.62 28.0893C9.71951 28.1054 9.83506 28.123 9.88481 28.1391H9.88642ZM12.5249 31.3409C12.8572 31.3409 13.1059 31.0922 13.1059 30.76C13.1059 30.5609 13.0064 30.378 12.923 30.2961C12.8235 30.1966 12.1767 29.6991 12.0435 29.6156C11.9311 29.553 11.8059 29.5193 11.6791 29.5161C11.3806 29.5161 11.1158 29.7649 11.1158 30.0795C11.1158 30.2945 11.2314 30.5112 11.3806 30.6107C11.5957 30.7439 11.9119 30.9927 12.1109 31.174C12.2441 31.2896 12.3757 31.3393 12.5249 31.3393V31.3409ZM8.34407 27.924C8.60889 27.924 8.8079 27.725 8.8079 27.4602C8.8079 27.1954 8.60889 26.9964 8.34407 26.9964C8.07926 26.9964 7.88025 27.1954 7.88025 27.4602C7.88025 27.725 8.07926 27.924 8.34407 27.924ZM10.0694 29.9302C10.5011 30.0297 10.7659 29.8146 10.7659 29.4664C10.7659 29.1839 10.6006 28.9849 10.3839 28.9191C10.0196 28.8035 9.88642 28.7698 9.78691 28.7698C9.50444 28.7698 9.25568 28.9849 9.25568 29.3011C9.25568 29.5498 9.40494 29.7328 9.66975 29.8146C10.1336 29.9479 10.0341 29.9302 10.0678 29.9302H10.0694ZM8.34407 29.6156C8.60889 29.6156 8.8079 29.4166 8.8079 29.1518C8.8079 28.887 8.60889 28.688 8.34407 28.688C8.07926 28.688 7.88025 28.887 7.88025 29.1518C7.88025 29.4166 8.07926 29.6156 8.34407 29.6156ZM11.0981 32.3521C11.3967 32.3521 11.6454 32.1033 11.6454 31.7887C11.6454 31.6234 11.5459 31.4405 11.4304 31.3409C11.1977 31.1419 10.4016 30.6781 9.90407 30.5288C9.84469 30.5096 9.7837 30.4984 9.72111 30.4951C9.64889 30.4951 9.57667 30.508 9.51086 30.5353C9.44506 30.5625 9.38407 30.6027 9.33271 30.654C9.28136 30.7054 9.24123 30.7664 9.21395 30.8322C9.18667 30.8996 9.17383 30.9702 9.17383 31.0424C9.17383 31.3249 9.37284 31.5239 9.5558 31.5897C9.98753 31.755 10.4851 32.0214 10.7338 32.2204C10.8349 32.3071 10.9649 32.3553 11.0981 32.3537V32.3521ZM8.34407 31.3072C8.60889 31.3072 8.8079 31.1082 8.8079 30.8434C8.8079 30.5786 8.60889 30.3796 8.34407 30.3796C8.07926 30.3796 7.88025 30.5786 7.88025 30.8434C7.88025 31.1082 8.07926 31.3072 8.34407 31.3072ZM8.32802 43.6829C13.1059 43.6829 16.6881 40.0172 16.6881 35.5042C16.6881 33.6954 16.1072 31.6395 15.478 30.8755C15.3288 30.6925 15.1635 30.5609 14.9147 30.5609C14.5327 30.5609 14.2519 30.8434 14.2519 31.2238C14.2519 31.3393 14.3016 31.4886 14.3514 31.5721C14.5006 31.7871 14.2519 31.9364 14.1363 31.7374C14.0368 31.5721 13.8041 31.4051 13.5393 31.4051C13.191 31.4051 12.9085 31.7037 12.9085 32.0359C12.9085 32.1643 12.9438 32.2895 13.008 32.4002C13.1733 32.665 12.9085 32.7645 12.809 32.5992C12.6758 32.3842 12.4447 32.2509 12.212 32.2509C12.0402 32.2509 11.8765 32.3184 11.7546 32.4403C11.6326 32.5623 11.5652 32.726 11.5652 32.8977C11.5652 33.0133 11.5989 33.1465 11.6486 33.23C12.013 33.8767 12.1799 34.5412 12.1799 35.2875C12.1799 37.6596 10.538 39.3688 8.34728 39.3688C6.55617 39.3688 5.12938 38.2245 4.66395 36.5313L0.36753 37.9244C1.41234 41.3413 4.49864 43.6813 8.32963 43.6813L8.32802 43.6829Z" fill="white"/>
</g>
<defs>
<clipPath id="clip0_56770_66504">
<rect width="140" height="60" fill="white"/>
</clipPath>
</defs>
</svg>
