<svg width="92" height="60" viewBox="0 0 92 60" fill="none" xmlns="http://www.w3.org/2000/svg">
<path fill-rule="evenodd" clip-rule="evenodd" d="M28.7747 43.5123H27.7722C27.7404 43.5126 27.7091 43.5199 27.6806 43.5338C27.6522 43.5477 27.6275 43.5677 27.6084 43.5924L25.8146 46.5208C25.7318 46.6273 25.6668 46.6265 25.5848 46.5185L23.8473 43.5939C23.8281 43.5689 23.8032 43.5485 23.7745 43.5343C23.7457 43.5202 23.714 43.5126 23.6818 43.5123H22.6986C22.6435 43.5127 22.5909 43.5342 22.5522 43.5721C22.5135 43.61 22.4919 43.6611 22.4921 43.7144V49.5915C22.4921 49.7034 22.5845 49.7935 22.6986 49.7935H23.6794C23.7067 49.7934 23.7337 49.7881 23.7588 49.7779C23.784 49.7677 23.8068 49.7528 23.826 49.734C23.8452 49.7152 23.8604 49.693 23.8706 49.6685C23.8809 49.6441 23.8861 49.6179 23.8859 49.5915V46.5698C23.8859 46.3755 24.0762 46.2931 24.1943 46.4501L25.5407 48.5982C25.6226 48.7063 25.7881 48.707 25.8716 48.5998L27.2613 46.4462C27.3802 46.2915 27.5698 46.3747 27.5698 46.5682V49.5915C27.5698 49.7034 27.6622 49.7935 27.7762 49.7935H28.7747C28.8299 49.7931 28.8826 49.7717 28.9214 49.7338C28.9602 49.696 28.982 49.6448 28.982 49.5915V43.7144C28.982 43.6611 28.9602 43.6099 28.9214 43.572C28.8826 43.5342 28.8299 43.5127 28.7747 43.5123ZM35.7651 47.3345H34.4557C34.3167 47.3345 34.2219 47.1923 34.2725 47.0602L34.9248 45.3737C34.9378 45.3369 34.9623 45.3049 34.9949 45.2823C35.0276 45.2596 35.0667 45.2474 35.1069 45.2473C35.1471 45.2472 35.1863 45.2593 35.219 45.2818C35.2517 45.3043 35.2764 45.3362 35.2895 45.3729L35.9474 47.0602C35.9988 47.1915 35.9032 47.3345 35.7651 47.3345ZM35.7988 43.6328C35.7846 43.5978 35.7599 43.5678 35.7281 43.5463C35.6962 43.5249 35.6585 43.5131 35.6197 43.5123H34.6019C34.5631 43.5131 34.5254 43.5249 34.4935 43.5463C34.4616 43.5678 34.437 43.5978 34.4228 43.6328L31.8827 49.5114C31.8257 49.6443 31.9205 49.7935 32.0627 49.7935H33.0845C33.1248 49.7931 33.1641 49.7807 33.1969 49.7579C33.2297 49.7351 33.2544 49.703 33.2676 49.6661L33.6444 48.6829C33.6576 48.6462 33.6823 48.6143 33.7149 48.5915C33.7475 48.5687 33.7865 48.5562 33.8267 48.5555H36.4045C36.4848 48.5555 36.5571 48.6052 36.5869 48.6814L36.9716 49.6669C36.9849 49.7036 37.0095 49.7354 37.0421 49.7581C37.0747 49.7808 37.1138 49.7932 37.154 49.7935H38.1589C38.3011 49.7935 38.3959 49.6443 38.3389 49.5114L35.7988 43.6328ZM53.2778 46.4905C53.2527 46.4562 53.2397 46.4149 53.2409 46.3729C53.242 46.3308 53.2573 46.2903 53.2843 46.2573L55.1359 44.0253C55.2395 43.9009 55.1487 43.7136 54.9857 43.7136H53.9623C53.9329 43.7137 53.904 43.7202 53.8777 43.7328C53.8514 43.7453 53.8284 43.7635 53.8104 43.7859L51.7283 46.3677C51.6142 46.5099 51.3821 46.4307 51.3821 46.2496V43.9048C51.3825 43.8546 51.3624 43.8064 51.3261 43.7705C51.2898 43.7347 51.2403 43.7142 51.1885 43.7136H50.2711C50.2192 43.7142 50.1698 43.7347 50.1335 43.7705C50.0972 43.8064 50.0771 43.8546 50.0775 43.9048V49.6024C50.0775 49.7081 50.1642 49.7935 50.2711 49.7935H51.1885C51.2953 49.7935 51.3821 49.7081 51.3821 49.6024V48.6107C51.3821 48.5664 51.3981 48.5244 51.4254 48.4902L52.207 47.549C52.2258 47.5261 52.2498 47.5078 52.2773 47.4956C52.3047 47.4834 52.3348 47.4777 52.365 47.4789C52.3951 47.4801 52.4246 47.4883 52.4509 47.5026C52.4772 47.5169 52.4996 47.5371 52.5163 47.5615L54.0313 49.7119C54.0491 49.7369 54.0728 49.7574 54.1005 49.7716C54.1282 49.7858 54.159 49.7934 54.1904 49.7935H55.3311C55.4893 49.7935 55.5809 49.6163 55.4877 49.4904L53.2778 46.4905ZM64.0091 48.6208H60.9879C60.958 48.6211 60.9282 48.6157 60.9004 48.6049C60.8726 48.5941 60.8473 48.578 60.8259 48.5578C60.8045 48.5375 60.7874 48.5133 60.7757 48.4867C60.7639 48.46 60.7577 48.4314 60.7574 48.4024V47.5102C60.7574 47.3897 60.861 47.2926 60.9879 47.2926H63.0106C63.0406 47.2928 63.0703 47.2873 63.0981 47.2764C63.1258 47.2654 63.1511 47.2494 63.1724 47.229C63.1938 47.2087 63.2107 47.1844 63.2224 47.1577C63.2341 47.131 63.2402 47.1024 63.2404 47.0734V46.4073C63.2397 46.3489 63.2152 46.2932 63.1721 46.2522C63.1291 46.2113 63.071 46.1885 63.0106 46.1889H60.9879C60.958 46.1893 60.9282 46.1838 60.9004 46.173C60.8726 46.1622 60.8473 46.1462 60.8259 46.126C60.8045 46.1057 60.7874 46.0815 60.7757 46.0548C60.7639 46.0282 60.7577 45.9995 60.7574 45.9706V45.104C60.7574 44.9835 60.861 44.8856 60.9879 44.8856H63.7979C63.8278 44.8859 63.8576 44.8805 63.8854 44.8697C63.9132 44.8589 63.9385 44.8429 63.9599 44.8226C63.9813 44.8023 63.9984 44.7782 64.0101 44.7515C64.0219 44.7248 64.0281 44.6962 64.0284 44.6672V43.932C64.0282 43.903 64.0221 43.8743 64.0103 43.8476C63.9986 43.8209 63.9816 43.7967 63.9601 43.7764C63.9387 43.7561 63.9133 43.7401 63.8855 43.7293C63.8576 43.7185 63.8279 43.7132 63.7979 43.7136H59.6135C59.5835 43.7133 59.5538 43.7187 59.526 43.7295C59.4982 43.7403 59.4729 43.7563 59.4515 43.7766C59.43 43.7969 59.413 43.821 59.4012 43.8477C59.3895 43.8744 59.3832 43.903 59.3829 43.932V49.5752C59.3829 49.6956 59.4866 49.7935 59.6135 49.7935H64.0091C64.0695 49.794 64.1276 49.7712 64.1706 49.7303C64.2137 49.6893 64.2383 49.6336 64.2389 49.5752V48.8392C64.2383 48.7808 64.2137 48.725 64.1706 48.684C64.1276 48.6431 64.0695 48.6204 64.0091 48.6208ZM71.3393 43.5123H66.6633C66.5604 43.5123 66.4777 43.6017 66.4777 43.712V44.5242C66.4777 44.6346 66.5604 44.7239 66.6633 44.7239H68.1855C68.2883 44.7239 68.3711 44.8133 68.3711 44.9229V49.5946C68.3711 49.7042 68.4546 49.7935 68.5566 49.7935H69.437C69.5391 49.7935 69.6226 49.7042 69.6226 49.5946V44.9229C69.6226 44.8133 69.7053 44.7239 69.8082 44.7239H71.3393C71.4413 44.7239 71.5248 44.6346 71.5248 44.5242V43.712C71.5248 43.6017 71.4413 43.5123 71.3393 43.5123ZM44.268 46.9529C44.0166 46.9669 43.7708 46.97 43.5121 46.9661C43.4586 46.9645 43.4078 46.9427 43.3706 46.9054C43.3333 46.8681 43.3127 46.8182 43.3129 46.7664V44.9004C43.3129 44.7908 43.4029 44.7006 43.5137 44.7014C43.7402 44.7022 43.9636 44.7053 44.2142 44.7193C45.0352 44.7543 45.6569 45.1296 45.6569 45.8276C45.6569 46.4431 45.2239 46.89 44.268 46.9529ZM47.0081 45.8625C47.0081 44.4955 45.963 43.5216 44.1427 43.5123C43.4928 43.5123 42.851 43.5279 42.161 43.5372C42.1074 43.5386 42.0565 43.5602 42.0192 43.5973C41.9818 43.6345 41.9609 43.6843 41.9609 43.7361V49.5946C41.9609 49.7042 42.0509 49.7935 42.1618 49.7935H43.1121C43.2229 49.7935 43.3129 49.7042 43.3129 49.5946V48.3511C43.3129 48.1956 43.3442 48.1521 43.5145 48.1521C43.7194 48.1521 44.0294 48.1591 44.2592 48.1591C44.3034 48.1591 44.3492 48.1545 44.3933 48.1529L44.3885 48.156C44.6118 48.156 44.6713 48.1366 44.7339 48.2586L45.4569 49.684C45.473 49.7167 45.4984 49.7444 45.5301 49.7638C45.5618 49.7832 45.5985 49.7935 45.636 49.7935H46.7269C46.8763 49.7935 46.9735 49.6373 46.9061 49.5044L46.0698 47.8685C46.0482 47.8253 46.0431 47.7761 46.0553 47.7296C46.0675 47.6831 46.0962 47.6423 46.1365 47.6143C46.653 47.2428 47.0081 46.6731 47.0081 45.8625ZM85.3111 26.1507C86.9578 26.1507 86.018 32.6216 83.1341 33.0514C83.0033 32.5746 82.9329 32.0842 82.9245 31.591C82.9245 29.4771 83.7462 26.1507 85.3111 26.1507ZM44.3869 36.0715C41.4018 36.0715 43.4888 26.1383 45.8979 26.1383C47.4989 26.1383 47.2426 36.0715 44.3869 36.0715ZM33.9906 26.1049C35.7024 26.1049 34.6862 32.3783 31.8739 33.4089C31.661 32.742 31.5566 32.0908 31.5566 31.591C31.5566 29.4771 32.4249 26.1049 33.9906 26.1049ZM90.6048 31.8211C90.5205 31.9019 89.7453 36.4158 86.402 36.4158C85.1022 36.4158 84.1857 35.4715 83.6201 34.3431C87.7113 33.4718 89.081 30.3654 89.081 28.239C89.081 25.7613 87.2519 24.8668 85.6943 24.8668C83.1478 24.8668 79.835 27.1401 79.835 31.591C79.835 31.9921 79.8591 32.3783 79.9041 32.749C79.0228 32.4918 78.2605 32.041 77.74 31.2724C78.5039 27.9872 78.3689 24.8435 76.7865 24.8435C75.8972 24.8435 75.1405 25.9657 75.1405 28.4123C75.1405 29.3745 75.4024 30.4532 75.935 31.4364C75.6096 32.9262 74.4938 36.5658 73.0744 36.5658C71.1176 36.5658 71.7216 27.6297 71.7216 26.3093C71.7216 25.2321 69.0129 24.1028 68.4177 24.6748C68.159 24.9228 68.1132 26.38 68.1132 28.2647C68.1132 29.8082 68.2385 31.6384 68.5872 33.3288C68.3992 34.2475 67.5935 36.6078 66.0873 36.6078C63.7529 36.6078 64.9353 28.145 64.9353 26.7826C64.9353 25.8095 62.3286 24.8948 61.6924 25.5064C61.441 25.7481 61.2667 27.4595 61.2667 30.1253C61.2667 31.2335 61.3325 32.4102 61.5028 33.5262C61.2562 34.7076 60.2891 36.6078 58.7194 36.6078C56.2235 36.6078 57.3273 27.3328 57.9916 21.6143C58.4055 21.5415 58.8219 21.4824 59.2399 21.4371C60.3324 21.3205 61.6723 21.1153 61.6723 21.7549C61.6723 23.2596 62.7126 23.7236 63.4838 23.7236C64.3248 23.7236 65.0848 23.0839 65.0848 21.8599C65.0848 20.6428 63.9987 19.5182 62.0523 19.5182C60.7566 19.5182 59.4697 19.662 58.1908 19.8633C58.2945 18.9066 58.3627 18.1496 58.3627 17.6965C58.3627 16.4211 55.6387 15.2025 55.1013 15.7185C54.9977 15.8188 54.633 17.8154 54.3189 20.5798C52.4263 20.9436 50.5538 21.2614 48.703 21.2614C48.0628 21.2614 48.1447 23.1244 50.3362 23.1244C51.5965 23.1244 52.8304 22.8562 54.1197 22.5282C53.9446 24.4634 53.8169 26.6069 53.8169 28.6711C53.8169 30.5177 53.9317 32.1358 54.1719 33.5052C53.9269 34.5335 53.1501 36.6078 51.7435 36.6078C49.0019 36.6078 50.3016 27.5007 50.3016 26.1383C50.3016 25.4909 47.8074 24.0951 47.2916 24.5893C47.2193 24.6593 47.1768 25.044 47.1768 25.044C47.1768 25.044 46.8442 24.8093 45.9236 24.8093C42.4244 24.8093 39.6153 28.961 39.6153 32.7498C39.6153 32.9317 39.6249 33.1058 39.6354 33.2799C39.0932 34.4985 37.7227 36.6078 35.2397 36.6078C34.0034 36.6078 33.0981 35.8104 32.4932 34.8008C36.3282 33.7586 37.8488 30.5162 37.8488 28.445C37.8488 26.0209 35.7072 24.8202 34.1496 24.8202C31.4465 24.8202 28.4671 27.423 28.4671 31.8156C28.4671 33.0949 28.7209 34.2024 29.1523 35.1327C28.6735 35.8702 27.9208 36.6078 26.9095 36.6078C24.1068 36.6078 25.9857 27.559 25.9857 26.5937C25.9857 26.3543 25.9889 25.9044 25.5439 25.6028C24.9567 25.2064 21.5796 24.7759 20.4357 24.5583C20.4445 24.3181 20.4477 24.0974 20.4477 23.9008C20.4477 22.1521 19.3046 21.7495 18.5704 21.7495C17.3277 21.7495 17.0674 23.0909 17.0674 23.415C17.0674 23.7391 17.1598 24.8738 18.4025 25.5671C18.4025 28.8343 16.2368 36.5456 10.4217 36.5456C6.03571 36.5456 4.42991 32.2035 4.42991 28.9665C4.42991 23.5223 7.75397 19.3068 9.90681 19.3068C12.6075 19.3068 10.2249 24.3072 12.9256 24.3072C14.8278 24.3072 15.0929 22.5376 15.0929 21.7239C15.0929 20.2006 13.4365 17.3483 9.91726 17.3483C4.30138 17.3483 0.138672 23.9202 0.138672 29.5532C0.138672 34.9656 4.00737 39.3256 9.43528 39.3256C17.8169 39.3256 19.9103 30.7727 20.3465 25.9852C20.8847 26.1383 22.2118 26.352 22.3411 26.4779C22.5604 26.6885 21.9178 29.5921 21.9178 32.3861C21.9178 35.8897 23.1131 38.6945 25.9849 38.6945C27.7835 38.6945 29.2302 37.4401 29.9885 36.4764C31.1541 37.908 32.837 38.6518 34.4806 38.6518C37.3098 38.6518 39.1695 36.9567 40.1069 35.5928C40.8958 37.6414 42.5096 38.6518 43.97 38.6518C46.008 38.6518 47.2354 36.0218 47.3061 35.5967C47.923 37.4316 49.3609 38.6945 50.9836 38.6945C53.0393 38.6945 54.2723 36.9039 54.776 35.7847C55.5046 37.6756 56.6694 38.6945 58.3394 38.6945C60.2521 38.6945 61.5173 37.0236 62.0852 35.9013C62.6901 37.5381 63.6926 38.6945 65.2952 38.6945C67.44 38.6945 68.7711 36.593 69.2161 35.5213C69.9206 37.3282 71.026 38.63 72.7177 38.63C74.6079 38.63 76.2466 36.0327 77.2267 33.0941C78.0793 33.8676 79.1602 34.3643 80.3186 34.5148C81.2713 37.1534 83.5004 38.6292 85.8485 38.6292C89.9526 38.6292 91.527 34.5793 91.6949 33.6304C91.8628 32.6806 90.9197 31.5188 90.6048 31.8211Z" fill="white"/>
</svg>
