<svg width="122" height="60" viewBox="0 0 122 60" fill="none" xmlns="http://www.w3.org/2000/svg">
<g clip-path="url(#clip0_43509_53606)">
<path d="M14.3292 19.0357C12.5678 19.1854 10.868 19.5544 9.47633 20.0783C5.16782 21.7037 2.48719 24.7512 1.89663 28.6863C1.8042 29.2904 1.8196 31.0067 1.92744 31.7285C2.34854 34.6316 4.13562 37.2301 6.89328 38.9356C8.93199 40.1921 11.4072 40.962 14.2624 41.2293C15.2279 41.3202 17.8469 41.2293 18.7969 41.0689C20.7894 40.7374 22.3094 40.2562 23.8552 39.4596C26.5204 38.0962 28.4461 36.0057 29.3191 33.5356C29.6683 32.5465 29.8378 31.6376 29.8737 30.5041C30.0432 25.4677 26.8131 21.4363 21.2618 19.7575C20.4505 19.5116 19.3566 19.2817 18.3347 19.1427C17.4258 19.0144 15.233 18.9609 14.3292 19.0357ZM18.0266 22.7516C22.14 23.4253 24.7384 25.4195 25.5087 28.4938C25.6268 28.959 25.6371 29.1087 25.6371 30.1031C25.6371 31.3061 25.596 31.6215 25.3239 32.3968C24.3738 35.1128 21.9243 36.8558 18.1704 37.4921C17.2255 37.6525 14.5808 37.6685 13.6616 37.5188C10.4161 36.9895 8.20791 35.6956 6.92409 33.573C5.70189 31.552 5.70702 28.7291 6.9395 26.6492C7.31437 26.0077 8.32089 24.9544 8.98848 24.4946C10.4469 23.4841 12.2289 22.8906 14.5089 22.65C15.0379 22.5965 17.5079 22.6661 18.0266 22.7516Z" fill="white"/>
<path d="M44.3984 19.0468C41.5483 19.2981 39.0577 20.0947 36.8649 21.4581C36.5055 21.6826 36.2025 21.8484 36.1871 21.8323C36.1717 21.8163 36.1563 21.3993 36.1563 20.902V20.0038H34.0508H31.9453V34.1455V48.2871H34.0508H36.1563V43.3415C36.1563 40.6201 36.1717 38.396 36.1871 38.396C36.2025 38.396 36.4387 38.5403 36.7109 38.7221C39.4274 40.4918 42.8167 41.3687 46.5552 41.2671C50.2886 41.1601 53.3646 40.1817 55.9477 38.2677C56.5485 37.8239 57.5448 36.8401 58.0172 36.2306C59.4705 34.3486 60.2203 31.8411 60.0405 29.4779C59.8505 27.0506 58.9981 25.0617 57.3907 23.324C54.8179 20.5438 50.5967 18.9612 45.8671 18.9933C45.3433 18.9987 44.6809 19.0254 44.3984 19.0468ZM47.5104 22.6771C48.5426 22.784 49.7237 23.0407 50.6121 23.3454C51.1924 23.5486 52.4197 24.1741 52.9281 24.5217C54.0682 25.313 54.9925 26.5106 55.4598 27.8151C55.7782 28.6866 55.8399 29.1464 55.809 30.3761C55.7834 31.5043 55.7166 31.8571 55.3623 32.7554C54.4944 34.91 52.4968 36.4712 49.6364 37.2197C48.3115 37.5673 47.8545 37.6154 45.9647 37.6154C44.4652 37.6154 44.2289 37.6047 43.6333 37.4978C41.7948 37.1663 40.3364 36.6049 39.1296 35.7708C38.2515 35.1613 37.286 34.0546 36.8495 33.1564C36.0227 31.4508 35.9663 29.2427 36.7109 27.4409C37.3066 26.0133 38.5853 24.6981 40.1721 23.8908C41.3378 23.292 42.9246 22.8428 44.4241 22.6824C45.0506 22.6183 46.889 22.6129 47.5104 22.6771Z" fill="white"/>
<path d="M74.6233 19.0468C72.8414 19.2072 71.0748 19.5975 69.6421 20.1482C69.0002 20.3888 67.4236 21.2015 66.8536 21.5757C66.602 21.7415 66.3914 21.8751 66.376 21.8751C66.3657 21.8751 66.3555 21.4527 66.3555 20.9395V20.0038H64.25H62.1445V34.1455V48.2871H64.25H66.3555V43.3415C66.3555 40.6201 66.3657 38.396 66.376 38.396C66.3914 38.396 66.6174 38.5403 66.8793 38.7168C68.728 39.9679 71.2751 40.8447 74.0328 41.1869C74.8595 41.2885 77.7918 41.2671 78.6032 41.1548C83.2198 40.5132 86.7118 38.5724 88.653 35.5676C89.3514 34.4823 89.8649 33.167 90.0908 31.8839C90.25 30.9643 90.25 29.2748 90.0908 28.3712C89.1922 23.3775 84.8426 19.9183 78.4491 19.1163C77.6942 19.0201 75.3577 18.9773 74.6233 19.0468ZM78.3721 22.7573C81.3608 23.2438 83.5331 24.4147 84.822 26.2326C85.9672 27.8472 86.3164 30.0179 85.7669 32.087C85.7104 32.3063 85.5358 32.75 85.3818 33.0762C84.2725 35.4286 81.8333 36.9791 78.3721 37.5245C77.9099 37.594 77.4272 37.6154 76.1382 37.6154C74.3614 37.6207 73.93 37.5726 72.6257 37.2411C69.6523 36.4819 67.5623 34.7924 66.7612 32.5094C66.4428 31.5952 66.3863 31.253 66.3914 30.1088C66.3914 29.1678 66.4068 29.0181 66.5249 28.5476C67.0487 26.4838 68.2401 25.0082 70.2583 23.9389C71.4651 23.2973 72.8003 22.9123 74.5206 22.6985C75.332 22.6022 77.6377 22.6343 78.3721 22.7573Z" fill="white"/>
<path d="M104.657 19.0507C101.042 19.3555 97.8374 20.6173 95.6138 22.6169C93.7189 24.3117 92.5532 26.5519 92.2759 29.0007C92.1937 29.7652 92.2451 31.3157 92.3786 32.0001C92.6816 33.5345 93.2362 34.8124 94.1503 36.0742C94.52 36.5874 95.4546 37.5712 95.9528 37.9829C98.1455 39.7686 100.919 40.8326 104.395 41.2122C105.802 41.3672 108.457 41.2496 109.869 40.9663C114.969 39.9504 118.502 37.2183 119.806 33.2886C120.078 32.4652 120.212 31.7488 120.268 30.8238C120.453 27.803 119.467 25.1725 117.357 23.0499C115.061 20.7456 111.775 19.3769 107.718 19.0454C106.953 18.9812 105.438 18.9866 104.657 19.0507ZM108.58 22.7826C109.356 22.9109 110.419 23.1783 111.025 23.4028C111.626 23.6274 112.596 24.1353 113.13 24.5096C113.726 24.9212 114.471 25.6537 114.887 26.2311C115.282 26.7872 115.708 27.7014 115.878 28.3484C116.042 28.9793 116.109 29.9523 116.052 30.7971C115.857 33.604 113.875 35.8977 110.717 36.9777C109.34 37.4482 108.01 37.6514 106.321 37.6514C105.104 37.6514 104.421 37.5926 103.45 37.4108C101.258 36.9884 99.5578 36.1437 98.315 34.8444C97.365 33.8607 96.8309 32.8662 96.5639 31.5937C96.4406 31.0217 96.4149 29.7224 96.5074 29.0702C97.0158 25.6163 99.9994 23.2424 104.503 22.7078C105.468 22.5955 107.646 22.6329 108.58 22.7826Z" fill="white"/>
</g>
<defs>
<clipPath id="clip0_43509_53606">
<rect width="118.471" height="29.3125" fill="white" transform="translate(1.82227 19)"/>
</clipPath>
</defs>
</svg>
